<svg width="103" height="89" viewBox="0 0 103 89" fill="none" xmlns="http://www.w3.org/2000/svg">
<path d="M23.1908 29.9229C23.2691 29.9396 23.3138 29.9219 23.3249 29.8697C23.3728 29.3891 23.4663 28.8228 23.6053 28.1708C23.7704 27.5244 23.9327 26.891 24.0922 26.2706C24.2573 25.6241 24.3824 25.0373 24.4676 24.5102C24.5788 23.9886 24.6147 23.6281 24.5754 23.4289C24.283 23.3938 23.9253 23.3448 23.5025 23.2819C23.0796 23.219 22.6465 23.1403 22.2031 23.0458C21.7598 22.9513 21.3034 22.854 20.8339 22.7539C20.3961 22.6333 20.0002 22.5079 19.6462 22.3779C19.6201 22.3724 19.5968 22.3538 19.5763 22.3221C19.4305 21.8548 19.3983 21.3026 19.4796 20.6656C19.5609 20.0285 19.8173 19.4015 20.2487 18.7846C21.0739 18.8787 21.9485 18.997 22.8724 19.1395C23.8224 19.2875 24.7566 19.4458 25.675 19.6143C26.625 19.7623 27.5359 19.902 28.4077 20.0333C29.3055 20.1702 30.1121 20.2877 30.8274 20.3857C30.9258 20.0522 31.0278 19.6377 31.1334 19.1421C31.2447 18.6205 31.3586 18.0859 31.4754 17.5382C31.5977 16.9644 31.7015 16.4139 31.7866 15.8868C31.8978 15.3652 31.9896 14.9348 32.0619 14.5958C31.3705 14.2575 30.5274 13.9278 29.5325 13.6066C28.5376 13.2854 27.4664 13.0025 26.3189 12.7579C25.1769 12.4871 24.0005 12.2499 22.7897 12.0463C21.6105 11.8222 20.4779 11.6352 19.3919 11.4855C18.332 11.3413 17.3764 11.2194 16.5252 11.1197C15.6739 11.02 15.0183 10.962 14.5582 10.9457L14.5499 10.9848C14.1161 13.0191 13.7213 14.8708 13.3655 16.5399C13.0152 18.183 12.674 19.719 12.3421 21.1479C12.0363 22.5823 11.7444 23.9515 11.4663 25.2555C11.1939 26.5335 10.9084 27.8086 10.6098 29.081C10.3374 30.359 10.0538 31.6891 9.75906 33.0713C9.46992 34.4275 9.15852 35.888 8.82489 37.4529L8.85567 37.5003C8.94887 37.5747 9.2535 37.6806 9.76955 37.8179C10.3117 37.9607 10.9348 38.1072 11.639 38.2573C12.3432 38.4075 13.0501 38.5446 13.7599 38.6686C14.4957 38.7982 15.1299 38.8926 15.6627 38.9516C16.0057 37.4706 16.3626 35.9244 16.7335 34.3129C17.1099 32.6754 17.5384 31.049 18.0191 29.4338L18.0583 29.4421C18.8685 29.4785 19.7095 29.5624 20.5813 29.6937C21.4847 29.8046 22.3545 29.8809 23.1908 29.9229Z" fill="white"/>
<path d="M50.8181 32.255C50.7604 32.27 50.7316 32.2775 50.7316 32.2775C50.7055 32.2719 50.6897 32.2822 50.6841 32.3083L50.6758 32.3474C50.6278 32.828 50.5705 33.2247 50.5038 33.5377C50.437 33.8507 50.3573 34.1608 50.2645 34.4682C50.2033 34.7551 50.1394 35.0551 50.0726 35.368C50.032 35.6865 49.9933 36.06 49.9565 36.4884C50.0757 36.5684 50.25 36.6464 50.4791 36.7226C50.7399 36.7782 51.0138 36.8366 51.3007 36.8977C51.6192 36.9384 51.9088 36.9865 52.1697 37.0421C52.4621 37.0772 52.6838 37.1244 52.8347 37.1839C52.9074 37.2267 52.9215 37.3524 52.877 37.561C52.8586 37.7752 52.8086 38.0099 52.7269 38.2652C52.6713 38.526 52.5896 38.7812 52.4818 39.0309C52.4057 39.2601 52.3435 39.424 52.2951 39.5228C52.113 39.8657 51.8925 40.1322 51.6338 40.3225C51.3807 40.4866 51.0968 40.6033 50.7821 40.6726C50.3892 40.7251 49.9627 40.7433 49.5027 40.727C49.0687 40.7162 48.6617 40.6431 48.2816 40.5075C47.9331 40.3514 47.6582 40.1701 47.4569 39.9636C47.0447 39.4667 46.8327 38.8626 46.8208 38.1511C46.8089 37.4397 46.838 36.7915 46.9082 36.2066C47.0357 35.225 47.2004 34.1967 47.4023 33.1218C47.6042 32.047 47.8369 31.0196 48.1004 30.0396C48.3694 29.0336 48.6506 28.0984 48.944 27.2339C49.2634 26.3749 49.5812 25.652 49.8972 25.065C49.9938 24.8674 50.1035 24.6727 50.2262 24.4807C50.3806 24.2682 50.4894 24.1415 50.5527 24.1004C50.9324 23.8542 51.3309 23.7756 51.7482 23.8645C52.1655 23.9535 52.593 24.0583 53.0308 24.1789C53.422 24.2623 53.7333 24.465 53.9646 24.787C54.2014 25.0829 54.388 25.4226 54.5243 25.8061C54.6923 26.1691 54.7998 26.5601 54.8468 26.9791C54.9255 27.3776 54.9761 27.7156 54.9987 27.9931C55.3788 28.1287 55.7095 28.2401 55.9909 28.3273C56.2722 28.4146 56.5432 28.486 56.8041 28.5416C57.0909 28.6028 57.3648 28.6612 57.6256 28.7168C57.918 28.7518 58.2599 28.8111 58.6511 28.8945C59.0739 28.9574 59.3766 29.0083 59.5592 29.0472C59.7418 29.0861 59.8675 29.072 59.9363 29.0049L60.0255 28.7785C60.5472 27.2266 60.6957 25.8267 60.4709 24.5791C60.2517 23.3054 59.7477 22.2164 58.9589 21.312C58.1702 20.4077 57.1516 19.6861 55.9032 19.1472C54.6603 18.5823 53.3022 18.2382 51.8289 18.115C51.1024 18.0692 50.391 18.0811 49.6945 18.1507C48.998 18.2203 48.3417 18.4212 47.7255 18.7534C46.858 19.1137 46.1685 19.662 45.6571 20.3982C45.1717 21.14 44.7721 21.9273 44.4582 22.7602C44.1499 23.5669 43.8751 24.4081 43.6339 25.2837C43.3982 26.1333 43.1784 26.9725 42.9744 27.8016C42.7425 28.761 42.546 29.6189 42.3847 30.3752C42.2551 31.111 42.1311 31.8207 42.0126 32.5044C41.9257 33.1675 41.8361 33.8437 41.7437 34.5329C41.6513 35.2221 41.5552 35.9924 41.4555 36.8436C41.3965 37.3763 41.3505 37.9119 41.3175 38.4501C41.3162 38.9679 41.324 39.3786 41.3411 39.6822C41.415 40.8703 41.6451 41.901 42.0316 42.7741C42.418 43.6472 43.0856 44.4166 44.0342 45.0824C44.6046 45.4767 45.2204 45.7852 45.8819 46.008C46.5693 46.2364 47.2866 46.3893 48.0335 46.4668C48.7749 46.5703 49.5143 46.6189 50.2519 46.6126C50.9838 46.6323 51.6953 46.6204 52.3862 46.5768C53.4551 46.423 54.4037 46.0663 55.2319 45.5067C56.0602 44.9471 56.6813 44.0162 57.0953 42.7139C57.6563 41.3611 58.0748 39.9098 58.3507 38.3599C58.6322 36.784 58.842 35.2882 58.9803 33.8726L58.9495 33.8251L58.8713 33.8084C58.6104 33.7528 58.1074 33.6183 57.3622 33.4049C56.6487 33.171 55.8643 32.9492 55.0092 32.7396C54.1541 32.53 53.3298 32.3679 52.5363 32.2533C51.7744 32.1181 51.2017 32.1187 50.8181 32.255ZM80.4237 23.9253C80.038 23.8158 79.5974 23.7082 79.1019 23.6026C78.638 23.4764 78.1527 23.3866 77.6461 23.3331C77.145 23.2535 76.6514 23.2028 76.1653 23.181C75.7052 23.1647 75.3076 23.1753 74.9724 23.2129C74.6503 25.1074 74.3093 26.8343 73.9496 28.3936C73.616 29.9584 73.1791 31.6239 72.6389 33.3901L72.5998 33.3817C71.9367 33.2949 71.2186 33.21 70.4456 33.1269C69.6781 33.0178 68.9851 32.8155 68.3664 32.5201L68.3273 32.5117C68.3702 30.7758 68.5724 29.0603 68.9338 27.365C69.2953 25.6698 69.5505 23.8974 69.6994 22.0478C69.3565 21.8656 68.9765 21.7301 68.5592 21.6411C68.1419 21.5521 67.7088 21.4734 67.2598 21.405C66.837 21.3421 66.4011 21.2764 65.9522 21.208C65.5293 21.1451 65.1306 21.0328 64.7561 20.8712L64.6779 20.8545L64.6388 20.8461L64.6304 20.8853C64.3207 22.2098 63.9749 23.7039 63.593 25.3675C63.2427 27.0105 62.8887 28.7346 62.5311 30.5397C62.1791 32.3188 61.827 34.0978 61.475 35.8768C61.149 37.6614 60.8425 39.3547 60.5555 40.9568C60.274 42.5327 60.0232 43.9652 59.8028 45.2543C59.6142 46.5228 59.4681 47.5278 59.3645 48.2692C59.6271 48.1888 59.9772 48.2089 60.4151 48.3295C60.8789 48.4557 61.3661 48.6005 61.8766 48.7639C62.3871 48.9272 62.9032 49.0645 63.4248 49.1757C63.9464 49.2869 64.3831 49.2846 64.735 49.1688C65.0434 48.362 65.2865 47.5414 65.4644 46.7068C65.674 45.8517 65.8603 44.978 66.0233 44.0857C66.1862 43.1934 66.3492 42.3011 66.5122 41.4088C66.7013 40.5221 66.9322 39.6306 67.2051 38.7345C68.0003 38.7132 68.7761 38.7832 69.5325 38.9444C70.2888 39.1057 71.0312 39.3321 71.7598 39.6238L71.7905 39.6712C71.7169 40.5281 71.5958 41.4157 71.4273 42.334C71.2588 43.2524 71.0772 44.168 70.8826 45.0808C70.714 45.9992 70.5427 46.9306 70.3686 47.8751C70.2262 48.799 70.1284 49.7052 70.0753 50.5937L70.1144 50.602C70.4329 50.6427 70.8139 50.7103 71.2572 50.8048C71.7267 50.9049 72.1961 51.005 72.6656 51.105C73.1611 51.2107 73.6594 51.3033 74.1605 51.3829C74.6877 51.468 75.1813 51.5187 75.6414 51.535L80.4237 23.9253ZM99.4629 28.4345C96.8377 27.5749 94.101 26.855 91.2527 26.275C88.436 25.6745 85.6948 25.1037 83.029 24.5626C83.0234 24.5887 83.0206 24.6017 83.0206 24.6017C83.0467 24.6073 83.057 24.6231 83.0514 24.6492C82.8658 25.264 82.7007 25.9104 82.5561 26.5885C82.4116 27.2666 82.2753 27.9056 82.1474 28.5054C82.0512 29.0848 81.9716 29.5858 81.9087 30.0087C81.8719 30.4371 81.8685 30.709 81.8984 30.8245C82.0438 30.91 82.312 30.9945 82.7033 31.0779C83.0945 31.1613 83.522 31.2661 83.9859 31.3922C84.4553 31.4923 84.9192 31.6185 85.3776 31.7707C85.8415 31.8969 86.2132 32.0716 86.4928 32.2948L86.5236 32.3423C85.9016 36.0269 85.3284 39.163 84.804 41.7505C84.3056 44.3436 83.8655 46.4719 83.4835 48.1355C83.1332 49.7786 82.8561 51.0146 82.652 51.8437C82.448 52.6727 82.3479 53.1421 82.3518 53.252C82.8379 53.2739 83.3548 53.3432 83.9025 53.4599C84.4502 53.5767 84.9979 53.6935 85.5456 53.8103C86.1193 53.9326 86.6801 54.0521 87.2278 54.1689C87.8071 54.2652 88.3398 54.3242 88.826 54.3461L88.8343 54.3069L88.8426 54.2678C89.3966 51.4139 89.8829 48.941 90.3017 46.849C90.726 44.7309 91.0836 42.9258 91.3745 41.4336C91.6709 39.9154 91.9062 38.6841 92.0803 37.7396C92.286 36.7746 92.45 36.0053 92.5724 35.4315C92.7003 34.8316 92.792 34.4013 92.8476 34.1405C92.9349 33.8592 93.0054 33.6561 93.0593 33.5313C93.0649 33.5052 93.0677 33.4921 93.0677 33.4921C93.0993 33.4716 93.1179 33.4483 93.1235 33.4222L93.1626 33.4306L93.2408 33.4473C94.4777 33.6564 95.4641 33.8258 96.1999 33.9555C96.9357 34.0851 97.5403 34.2549 98.0136 34.4648C98.3441 33.5537 98.629 32.5375 98.8681 31.416C99.1333 30.3001 99.3315 29.3063 99.4629 28.4345Z" fill="white"/>
<path d="M23.197 47.7869C23.4185 47.6433 23.6963 47.5713 24.0304 47.5709C24.3873 47.5755 24.7189 47.5865 25.0253 47.6041C25.692 47.7224 26.142 47.9615 26.3754 48.3214C26.6317 48.6862 26.7658 49.1204 26.7777 49.6239C26.7945 50.1047 26.7445 50.6189 26.6277 51.1666C26.5338 51.7191 26.4748 52.2195 26.4508 52.6677C27.2839 53.0123 28.0926 53.304 28.8767 53.5428C29.6885 53.7636 30.536 53.8727 31.4193 53.8701C32.0082 52.8983 32.3641 51.9005 32.4869 50.877C32.6097 49.8534 32.5443 48.8732 32.2908 47.9364C32.0421 46.9768 31.6231 46.0883 31.034 45.2708C30.4448 44.4533 29.7352 43.7533 28.9051 43.1707C28.1027 42.5702 27.1953 42.1262 26.183 41.8388C25.1707 41.5514 24.1031 41.4669 22.9804 41.5854C22.6415 41.6086 22.3091 41.657 21.9832 41.7307C21.6622 41.7815 21.3567 41.8715 21.0668 42.0005C20.5505 42.296 20.0791 42.6607 19.6525 43.0947C19.2488 43.5335 18.881 44.0276 18.5492 44.5772C18.3393 44.8903 18.1449 45.2425 17.966 45.6338C17.8148 46.0072 17.7207 46.3927 17.6836 46.7904C17.2667 48.6339 16.896 50.2607 16.5715 51.6707C16.2747 53.0628 16.0071 54.3179 15.7687 55.4361C15.558 56.5364 15.3692 57.5339 15.2022 58.4288C15.0353 59.3236 14.8871 60.1867 14.7576 61.018C14.6445 61.9959 14.7709 62.8578 15.1367 63.6039C15.5253 64.3547 16.0573 64.993 16.7325 65.5187C17.4126 66.0216 18.1765 66.4111 19.0242 66.6873C19.867 66.9863 20.7114 67.1663 21.5573 67.2273C22.8172 67.4721 24.0011 67.4024 25.1089 67.0183C26.2444 66.6163 27.2199 66.0131 28.0356 65.2088C28.8512 64.4045 29.4744 63.44 29.9051 62.315C30.3406 61.1673 30.491 59.9587 30.356 58.6894C30.056 58.53 29.703 58.3951 29.2971 58.2847C28.914 58.1791 28.5171 58.0826 28.1064 57.995C27.6956 57.9074 27.2824 57.8313 26.8668 57.7665C26.4739 57.7066 26.1227 57.6198 25.8129 57.506C25.5772 58.0522 25.4075 58.6244 25.3038 59.2226C25.2278 59.8028 25.0083 60.3286 24.6454 60.8C24.3199 61.2077 23.907 61.4656 23.4068 61.5737C22.9343 61.6638 22.4519 61.6326 21.9596 61.4799C21.3367 61.1562 20.9426 60.6547 20.7773 59.9753C20.6397 59.2779 20.6072 58.5911 20.6799 57.9147C20.7817 57.1014 20.9469 56.1584 21.1756 55.0859C21.4092 53.9905 21.6444 52.9432 21.8813 51.9439C22.1182 50.9447 22.3259 50.0824 22.5044 49.357C22.7057 48.6365 22.8365 48.2469 22.8968 48.1881C22.9293 48.1473 22.9667 48.0838 23.009 47.9973C23.079 47.893 23.1417 47.8228 23.197 47.7869ZM45.6566 68.7152C45.6727 68.5278 45.7051 68.32 45.7537 68.0918C45.8301 67.8456 45.904 67.6109 45.9755 67.3875C46.0518 67.1414 46.1167 66.8928 46.1702 66.6418C45.9828 66.6257 45.6495 66.5665 45.1703 66.4644C44.7187 66.3442 44.1873 66.2071 43.576 66.0529C42.9876 65.9036 42.3534 65.7445 41.6737 65.5757C41.0216 65.389 40.4014 65.2209 39.8129 65.0716C39.2244 64.9223 38.702 64.799 38.2456 64.7017C37.8169 64.5864 37.5178 64.5346 37.3483 64.5461L37.3556 64.5119C37.6898 63.0563 38.0109 61.5501 38.319 59.9935C38.6547 58.4189 38.979 56.8418 39.2919 55.2623C39.6048 53.6829 39.9153 52.1148 40.2233 50.5582C40.559 48.9835 40.9078 47.4594 41.2697 45.9858C40.9794 45.7808 40.5791 45.5881 40.0689 45.4077C39.5586 45.2274 39.0296 45.0788 38.4819 44.962C37.9342 44.8453 37.4135 44.77 36.9196 44.7363C36.4307 44.6798 36.0624 44.6728 35.8147 44.7154C35.4969 46.3177 35.2084 47.7831 34.949 49.1116C34.6945 50.4172 34.4546 51.6544 34.2292 52.8231C34.0039 53.9918 33.7721 55.1352 33.5337 56.2534C33.2952 57.3716 33.0357 58.533 32.755 59.7377C32.502 60.9243 32.2043 62.2088 31.8618 63.5911C31.5243 64.9506 31.1388 66.4788 30.7054 68.1758L30.5741 68.7919C33.3256 69.4263 35.5229 69.9186 37.166 70.2689C38.8319 70.6241 40.1351 70.89 41.0756 71.0667C42.0389 71.2482 42.717 71.3689 43.1098 71.4288C43.5254 71.4936 43.8563 71.5641 44.1025 71.6405C44.3535 71.694 44.5475 71.7354 44.6844 71.7645C44.8262 71.7709 44.9393 71.6877 45.0239 71.5149C45.1362 71.3241 45.2361 71.0233 45.3237 70.6125C45.4161 70.1789 45.5271 69.5465 45.6566 68.7152ZM66.0639 52.3815C65.8241 52.1634 65.4923 51.9853 65.0684 51.8472C64.6446 51.7091 64.1906 51.6004 63.7065 51.5211C63.2224 51.4417 62.7335 51.3852 62.2396 51.3515C61.7735 51.2998 61.3897 51.2537 61.0881 51.2133C60.4553 53.8459 59.8258 56.5746 59.1996 59.3995C58.5963 62.2292 57.9457 65.0011 57.2477 67.7152C57.0217 68.2158 56.6831 68.573 56.2319 68.787C55.7807 69.0009 55.3245 69.0707 54.8632 68.9962C54.4019 68.9217 53.9813 68.7127 53.6012 68.3692C53.2439 68.0306 53.0438 67.5705 53.0009 66.9887C53.756 61.2091 54.8477 55.5848 56.2762 50.1158L56.2835 50.0816C55.9607 49.9173 55.5963 49.78 55.1904 49.6696C54.7894 49.5364 54.372 49.4235 53.9385 49.3311C53.5049 49.2386 53.0688 49.1576 52.6304 49.088C52.2148 49.0232 51.8358 48.9543 51.4935 48.8814L51.4593 48.8741L51.4862 48.9156C50.8896 51.9376 50.2311 54.9703 49.5106 58.0136C48.7902 61.057 48.1089 64.0848 47.4666 67.0971C47.2884 68.1566 47.3929 69.1212 47.78 69.9911C48.1949 70.843 48.7644 71.5847 49.4886 72.2163C50.2405 72.8299 51.1129 73.326 52.1058 73.7047C53.0938 74.1062 54.0767 74.3635 55.0546 74.4766C56.7318 74.6671 58.1615 74.3397 59.3437 73.4943C60.526 72.649 61.369 71.4927 61.8727 70.0254C62.8198 67.1497 63.6324 64.2334 64.3106 61.2765C64.9936 58.2967 65.5781 55.3317 66.0639 52.3815ZM78.3465 67.0962C78.2616 66.9349 78.2061 66.8038 78.1799 66.7028C78.1537 66.6018 78.2033 66.4811 78.3286 66.3408C78.9505 65.6622 79.5184 64.9006 80.0325 64.0559C80.5695 63.2161 80.9401 62.3169 81.1444 61.3585C81.4169 60.0805 81.4402 58.9642 81.2143 58.0094C80.9933 57.0318 80.5875 56.1938 79.9968 55.4953C79.411 54.7739 78.6771 54.188 77.7949 53.7375C76.9356 53.2919 76.0088 52.9392 75.0144 52.6795C74.0201 52.4197 72.9948 52.2489 71.9387 52.1668C70.8826 52.0848 69.8714 52.072 68.905 52.1284L68.8635 52.1553C68.0854 56.1407 67.2461 60.0772 66.3456 63.9649C65.45 67.8298 64.6498 71.7508 63.945 75.7279C64.0494 75.7979 64.1586 75.845 64.2727 75.8694C64.4097 75.8985 64.5466 75.9277 64.6835 75.9569C65.5002 76.1549 66.369 76.3879 67.2901 76.6558C68.2339 76.9286 69.1761 77.1534 70.1166 77.33C71.0751 77.5344 72.0115 77.6744 72.9258 77.75C73.845 77.8029 74.7086 77.7246 75.5167 77.5151C76.3248 77.3057 77.0505 76.9236 77.6936 76.3689C78.3644 75.7962 78.9055 74.993 79.3167 73.9593C79.6093 73.2583 79.7733 72.6014 79.8085 71.9886C79.8437 71.3758 79.7869 70.803 79.638 70.2703C79.5169 69.7195 79.3314 69.1909 79.0815 68.6843C78.8593 68.1598 78.6143 67.6304 78.3465 67.0962ZM73.9173 72.0924C73.6307 72.3176 73.3131 72.4646 72.9644 72.5334C72.6434 72.5843 72.2955 72.5936 71.9206 72.5614C71.5735 72.5112 71.2173 72.4472 70.8522 72.3694C70.5148 72.2736 70.1863 72.1916 69.8668 72.1235L69.8056 72.0747C69.6815 71.7619 69.6289 71.3928 69.6481 70.9675C69.6672 70.5421 69.723 70.1126 69.8154 69.679C69.9355 69.2275 70.076 68.7922 70.2369 68.3732C70.3979 67.9542 70.5604 67.5833 70.7247 67.2605C71.1486 67.3986 71.5863 67.5277 72.0378 67.6478C72.4942 67.7451 72.927 67.897 73.3363 68.1036C73.6184 68.2353 73.872 68.4444 74.0972 68.731C74.3272 68.9948 74.4815 69.2782 74.5601 69.5812C74.6371 70.0033 74.6245 70.4539 74.5224 70.9331C74.443 71.4172 74.2413 71.8036 73.9173 72.0924ZM75.9631 62.3294C75.7075 62.6328 75.4006 62.8417 75.0422 62.9561C74.7114 63.0526 74.3586 63.0848 73.9838 63.0526C73.6089 63.0204 73.23 62.9515 72.8469 62.846C72.4638 62.7404 72.106 62.6283 71.7734 62.5097C71.7383 61.6672 71.8353 60.8767 72.0643 60.1382C72.3161 59.4046 72.4752 58.7705 72.5414 58.2359C72.9227 58.1263 73.3619 58.1365 73.8591 58.2663C74.3839 58.3783 74.8648 58.5285 75.3018 58.7171C75.6475 58.8862 75.9353 59.1027 76.1654 59.3664C76.4231 59.6123 76.6043 59.9372 76.7091 60.3412C76.8138 60.7453 76.7702 61.1177 76.5782 61.4585C76.3863 61.7993 76.1812 62.0896 75.9631 62.3294Z" fill="white"/>
<path d="M39.1178 20.0929L41.1118 10.7406C41.2342 10.1665 41.1483 9.66204 40.9198 9.61333L40.0928 9.43701C39.8643 9.3883 39.5801 9.81386 39.4577 10.388L37.4232 19.9306C37.5776 19.8426 37.731 19.7973 37.8765 19.8283L39.1178 20.0929ZM41.0966 27.0324C41.5857 24.7372 41.242 22.7186 40.3289 22.5239L37.4308 21.906C37.2039 21.8576 36.922 22.2776 36.8004 22.8478L36.7926 22.8842C36.4289 24.5903 36.6841 26.0924 37.3631 26.2371L38.2743 26.4314C38.5245 26.4847 38.5659 26.7366 38.5047 27.0237L38.2804 28.0758C38.221 28.3545 38.0799 28.5613 37.9659 28.552C36.7838 28.4548 35.9656 29.8033 34.479 32.7346L34.1848 33.3149C34.1577 33.3685 34.1279 33.4131 34.0973 33.4463C34.0666 33.4795 34.0357 33.5005 34.0062 33.5082C33.9767 33.5159 33.9493 33.5102 33.9255 33.4912C33.9017 33.4723 33.882 33.4406 33.8675 33.398L33.6464 32.7479C33.6319 32.7053 33.6229 32.6525 33.6198 32.5926C33.6168 32.5327 33.6198 32.4669 33.6288 32.3989C33.6377 32.3308 33.6524 32.262 33.6719 32.1962C33.6914 32.1304 33.7155 32.0689 33.7426 32.0154L34.0368 31.4351C34.7702 29.9891 35.4164 28.7919 36.0638 27.9237C35.6937 27.4707 35.5032 26.5739 35.5362 25.4721C35.3187 25.6573 35.099 25.7537 34.8946 25.7101L34.0676 25.5338C33.7487 25.4658 33.5271 25.092 33.4134 24.5469C33.0869 24.9988 32.7321 25.2497 32.4134 25.1818L31.5864 25.0055C31.4407 24.9744 31.3188 24.8703 31.2138 24.7257L30.1347 29.787C29.6646 31.9919 29.5622 34.1802 29.8503 35.8719L30.168 37.7396L29.2818 41.8962L35.8974 43.3067L36.783 39.1527L38.2085 37.0177C38.9233 35.9471 39.5229 34.4163 39.8755 32.7621L41.0966 27.0324ZM41.5168 21.005L43.1494 13.3478C43.2718 12.7737 43.1859 12.2692 42.9575 12.2205L42.1304 12.0442C41.902 11.9955 41.6178 12.4211 41.4954 12.9952L39.9445 20.2692L40.7715 20.4455C41.063 20.5077 41.3066 20.7164 41.5168 21.005ZM32.0295 22.9272L32.8565 23.1035C33.085 23.1522 33.3692 22.7267 33.4916 22.1525L35.264 13.8394C35.3864 13.2653 35.3005 12.7608 35.0721 12.7121L34.2451 12.5358C34.0166 12.487 33.7324 12.9126 33.61 13.4867L31.8376 21.7999C31.7152 22.374 31.8011 22.8785 32.0295 22.9272ZM34.5103 23.4561L35.3373 23.6324C35.5658 23.6811 35.8499 23.2556 35.9724 22.6815L38.1879 12.29C38.3103 11.7159 38.2244 11.2114 37.9959 11.1627L37.1689 10.9864C36.9405 10.9377 36.6563 11.3632 36.5339 11.9374L34.3183 22.3288C34.1959 22.9029 34.2818 23.4074 34.5103 23.4561V23.4561Z" fill="#FF0000"/>
</svg>
